<?xml version="1.0" encoding="UTF-8"?>
<svg id="Layer_2" data-name="Layer 2" xmlns="http://www.w3.org/2000/svg" viewBox="0 0 223.21 332.08">
  <defs>
    <style>
      .cls-1 {
        fill: none;
        stroke: #00ffff;
        stroke-miterlimit: 10;
        stroke-width: 15px;
      }
    </style>
  </defs>
  <g id="Layer_1-2" data-name="Layer 1">
    <path class="cls-1" d="M209.54,149.5l-15.81-52.61c-1.81-6.04-10.02-6.86-13-1.31l-11.28,20.98c-2.99,5.55-11.19,4.72-13-1.31l-1.97-6.55c-1.81-6.04-10.02-6.86-13-1.31l-9.84,18.3c-2.99,5.55-11.19,4.72-13-1.31l-1.35-4.49c-1.81-6.04-10.02-6.86-13-1.31h0c-3.83,7.13-14.7,3.27-13.18-4.68l16.34-85.57c3.75-19.63-23.07-29.15-32.54-11.55L13.26,131.35c-19.81,36.83,14.68,79.27,54.78,67.41l136.73-40.44c3.76-1.11,5.9-5.07,4.77-8.82Z"/>
    <path class="cls-1" d="M146.73,315.37l68.12-126.65c2.98-5.54-2.21-11.92-8.24-10.13l-93.87,27.81c-3.17.94-5.27,3.95-5.05,7.25l6.23,94.6c1.15,17.5,24.5,22.57,32.81,7.12Z"/>
  </g>
</svg>